<?xml version="1.0" standalone="no"?>
<!DOCTYPE svg PUBLIC "-//W3C//DTD SVG 20010904//EN"
 "http://www.w3.org/TR/2001/REC-SVG-20010904/DTD/svg10.dtd">
<svg version="1.0" xmlns="http://www.w3.org/2000/svg"
 width="512.000000pt" height="512.000000pt" viewBox="0 0 512.000000 512.000000"
 preserveAspectRatio="xMidYMid meet">

<g transform="translate(0.000000,512.000000) scale(0.100000,-0.100000)"
fill="#FFFFFF" stroke="none">
<path d="M1145 4956 c-39 -17 -82 -67 -89 -103 -2 -16 -8 -63 -11 -105 l-7
-77 -393 -3 c-380 -3 -395 -4 -421 -24 -63 -47 -69 -63 -72 -217 -9 -388 80
-709 282 -1011 222 -331 595 -583 990 -668 l108 -23 79 -115 c43 -63 113 -159
154 -212 l76 -98 718 0 719 0 54 63 c82 95 147 182 203 275 l51 85 125 31
c295 76 536 208 748 411 260 250 414 530 482 877 19 94 23 148 23 318 1 199 0
206 -22 238 -13 18 -41 41 -62 52 -37 19 -60 20 -424 20 l-384 0 -4 99 c-3
107 -13 132 -72 175 -27 21 -31 21 -1424 23 -1146 2 -1402 0 -1427 -11z m-96
-747 c27 -362 112 -717 245 -1020 52 -116 57 -113 -91 -44 -255 120 -472 329
-600 581 -91 178 -135 339 -149 542 l-7 102 295 0 294 0 13 -161z m3617 59
c-14 -203 -58 -364 -149 -542 -128 -251 -346 -462 -600 -581 -147 -69 -142
-70 -101 27 134 318 222 697 239 1038 4 63 8 125 11 138 l4 22 302 0 301 0 -7
-102z m-2037 -23 c44 -22 71 -61 140 -201 l63 -130 122 -18 c166 -24 192 -32
234 -71 l36 -33 -18 -58 c-16 -53 -31 -72 -137 -179 l-118 -120 25 -168 c28
-186 27 -201 -25 -251 -54 -52 -82 -47 -245 39 l-146 76 -144 -75 c-79 -42
-154 -76 -165 -76 -33 0 -99 37 -118 67 -17 25 -16 34 9 207 l27 181 -118 120
c-124 125 -140 153 -126 215 8 37 64 86 112 99 21 5 93 17 159 27 l121 18 77
153 c60 121 83 158 109 173 38 24 87 26 126 5z"/>
<path d="M1970 1973 c0 -171 -119 -422 -294 -623 -56 -63 -66 -81 -66 -112 0
-28 6 -42 26 -57 27 -21 31 -21 939 -21 908 0 912 0 939 21 19 15 26 30 26 56
0 30 -12 49 -81 127 -45 50 -104 123 -131 161 -99 138 -178 340 -178 452 l0
43 -590 0 -590 0 0 -47z"/>
<path d="M1434 830 c-11 -4 -33 -22 -47 -40 l-27 -32 0 -255 c0 -289 2 -298
75 -333 40 -20 66 -20 1125 -20 1059 0 1085 0 1125 20 73 35 75 44 75 330 0
276 -3 289 -60 324 -26 15 -128 16 -1137 15 -609 0 -1117 -4 -1129 -9z"/>
</g>
</svg>
