<?xml version="1.0" standalone="no"?>
<!DOCTYPE svg PUBLIC "-//W3C//DTD SVG 20010904//EN"
 "http://www.w3.org/TR/2001/REC-SVG-20010904/DTD/svg10.dtd">
<svg version="1.0" xmlns="http://www.w3.org/2000/svg"
 width="364.000000pt" height="364.000000pt" viewBox="0 0 364.000000 364.000000"
 preserveAspectRatio="xMidYMid meet">

<g transform="translate(0.000000,364.000000) scale(0.100000,-0.100000)"
fill="#FF6634" stroke="none">
<path d="M10 1820 l0 -1820 1815 0 1815 0 0 1820 0 1820 -1815 0 -1815 0 0
-1820z m1960 1105 l0 -216 -186 -229 -185 -230 185 0 186 0 0 -285 0 -285 345
0 c190 0 345 -2 345 -6 0 -3 -58 -76 -128 -162 -147 -180 -291 -357 -450 -555
l-112 -139 0 -159 0 -159 -145 0 -145 0 1 213 0 212 188 230 187 230 -188 3
-188 2 0 285 0 285 -340 0 c-187 0 -340 3 -340 6 0 5 174 222 507 631 l173
213 0 165 0 165 145 0 145 0 0 -215z"/>
</g>
</svg>
