<?xml version="1.0" standalone="no"?>
<!DOCTYPE svg PUBLIC "-//W3C//DTD SVG 20010904//EN"
 "http://www.w3.org/TR/2001/REC-SVG-20010904/DTD/svg10.dtd">
<svg version="1.0" xmlns="http://www.w3.org/2000/svg"
 width="512.000000pt" height="512.000000pt" viewBox="0 0 512.000000 512.000000"
 preserveAspectRatio="xMidYMid meet">

<g transform="translate(0.000000,512.000000) scale(0.100000,-0.100000)"
fill="#000000" stroke="none">
<path d="M2390 3363 c-41 -8 -106 -12 -145 -10 l-69 5 34 -19 c41 -21 168 -26
251 -8 40 9 66 8 108 -1 80 -18 94 -26 81 -50 -9 -16 -7 -20 5 -20 8 0 15 -9
15 -20 0 -17 5 -19 28 -15 20 4 17 1 -13 -13 l-40 -19 50 -9 c28 -6 49 -15 48
-21 -1 -6 11 -13 27 -17 18 -3 30 -12 30 -21 0 -9 10 -20 23 -25 35 -15 -47
-1 -118 20 -72 22 -168 33 -160 20 4 -6 16 -10 28 -10 39 0 137 -29 165 -49
15 -11 59 -29 97 -41 81 -26 110 -49 120 -93 6 -31 7 -31 17 -10 9 19 6 30
-17 65 -24 36 -28 52 -27 100 2 50 -2 64 -32 111 -24 37 -45 58 -68 66 -18 7
-47 19 -64 26 -18 8 -42 11 -54 8 -14 -4 -30 2 -48 19 -15 14 -37 31 -49 37
-29 15 -130 12 -223 -6z m123 0 c-7 -2 -19 -2 -25 0 -7 3 -2 5 12 5 14 0 19
-2 13 -5z m-120 -20 c-7 -2 -21 -2 -30 0 -10 3 -4 5 12 5 17 0 24 -2 18 -5z"/>
<path d="M1912 3235 c-7 -8 -9 -15 -4 -15 5 0 15 7 22 15 16 19 -1 19 -18 0z"/>
<path d="M1825 3230 c-3 -6 1 -7 9 -4 18 7 21 14 7 14 -6 0 -13 -4 -16 -10z"/>
<path d="M1615 3210 c-10 -11 -13 -20 -8 -20 13 0 38 29 31 35 -3 3 -13 -4
-23 -15z"/>
<path d="M2547 3190 c-3 -13 -4 -26 -2 -28 8 -8 56 9 50 18 -3 5 3 13 12 19
23 13 12 14 -21 2 -17 -7 -26 -7 -29 2 -2 6 -6 1 -10 -13z"/>
<path d="M1561 3158 c-1 -44 12 -81 39 -111 20 -20 20 -18 -3 43 -14 36 -27
74 -30 85 -3 12 -5 5 -6 -17z"/>
<path d="M1778 3161 c-33 -19 -35 -31 -8 -54 22 -19 44 -13 70 17 11 14 9 16
-10 16 -15 0 -20 4 -17 15 9 22 -5 24 -35 6z"/>
<path d="M1660 3136 c-5 -5 -10 -14 -10 -18 0 -13 45 -9 65 6 17 12 16 14 -13
18 -17 2 -36 0 -42 -6z"/>
<path d="M1661 3091 c-10 -7 -10 -10 -1 -13 10 -3 10 -9 1 -25 -19 -37 -12
-50 9 -16 12 21 25 31 34 27 8 -3 23 -1 33 5 16 9 16 11 -7 12 -14 1 -33 1
-43 1 -10 -1 -15 3 -12 8 8 12 4 12 -14 1z"/>
<path d="M1390 3025 c0 -9 -11 -37 -25 -63 -33 -63 -36 -95 -10 -99 18 -3 18
-2 2 5 -17 7 -17 9 -3 21 8 7 26 36 39 65 24 51 25 52 61 48 42 -5 49 13 10
28 -38 15 -74 12 -74 -5z"/>
<path d="M1547 2962 c-8 -14 29 -39 49 -32 17 6 15 9 -13 23 -18 10 -34 14
-36 9z"/>
<path d="M3151 2944 c14 -17 32 -19 27 -2 -2 6 -12 12 -22 14 -14 2 -15 0 -5
-12z"/>
<path d="M3041 2911 c-17 -23 -20 -38 -15 -73 8 -56 -16 -118 -45 -118 -13 0
-27 -12 -37 -32 -9 -18 -22 -40 -29 -48 -7 -8 -20 -37 -29 -64 -9 -27 -23 -58
-31 -69 -8 -12 -15 -29 -15 -38 0 -25 73 -86 118 -100 51 -15 78 -1 102 53 14
32 19 37 24 22 4 -15 25 -280 26 -332 0 -7 4 -11 8 -8 16 10 22 189 11 296
-11 97 -10 110 10 176 25 85 25 107 1 199 l-19 70 7 -55 c12 -97 6 -193 -16
-241 -16 -35 -20 -39 -21 -20 -1 13 6 51 15 85 20 78 9 256 -16 241 -13 -8
-20 36 -9 59 8 16 6 15 -10 -4 -22 -27 -28 -21 -11 11 16 29 4 23 -19 -10z
m-116 -501 c3 -5 2 -10 -4 -10 -5 0 -13 5 -16 10 -3 6 -2 10 4 10 5 0 13 -4
16 -10z"/>
<path d="M1442 2918 c-14 -14 -16 -48 -3 -48 5 0 11 14 13 30 3 17 4 30 3 30
0 0 -6 -5 -13 -12z"/>
<path d="M2734 2842 c-32 -21 -66 -47 -74 -57 -8 -11 2 -6 23 10 39 29 117 46
117 26 0 -13 -90 -80 -107 -81 -7 0 -38 -11 -69 -25 -56 -25 -93 -34 -64 -15
23 14 9 18 -45 11 -39 -5 -46 -8 -30 -15 19 -8 19 -8 -5 -18 -19 -7 -21 -11
-11 -17 11 -7 11 -13 -3 -32 -9 -13 -16 -30 -16 -39 1 -8 8 -1 18 15 l17 30 3
-27 c4 -36 32 -46 32 -11 0 40 60 90 118 98 26 4 52 13 57 19 6 7 30 18 55 24
40 10 43 9 26 -4 -32 -23 -2 -16 34 9 22 14 37 35 43 57 8 31 6 37 -18 57 -14
13 -30 23 -34 23 -4 0 -34 -17 -67 -38z"/>
<path d="M1427 2820 c-9 -14 -17 -28 -17 -32 0 -14 38 -8 54 8 16 15 13 39 -4
29 -4 -3 -10 0 -12 7 -3 7 -11 2 -21 -12z"/>
<path d="M1322 2758 c-19 -23 -21 -28 -7 -28 9 0 14 -4 11 -9 -4 -5 -1 -11 6
-13 9 -3 8 -9 -5 -22 -9 -10 -17 -20 -17 -24 0 -3 5 -1 12 6 7 7 17 12 23 12
5 -1 -1 -10 -15 -22 -25 -22 -23 -22 29 0 10 4 12 1 6 -9 -6 -11 -5 -11 4 -3
14 13 2 44 -26 72 -10 11 -11 18 -3 28 7 7 10 19 8 27 -2 9 -11 5 -26 -15z"/>
<path d="M3011 2189 c-6 -18 -11 -50 -10 -73 1 -36 3 -32 15 28 15 76 13 95
-5 45z"/>
<path d="M1822 2120 c-23 -17 -42 -33 -42 -37 0 -3 8 1 18 10 9 9 37 25 62 36
30 13 38 20 24 20 -12 1 -40 -13 -62 -29z"/>
<path d="M1921 2061 c-8 -5 -9 -11 -3 -15 5 -3 12 1 16 9 6 17 6 18 -13 6z"/>
<path d="M2024 2000 c-6 -28 -8 -53 -5 -55 3 -3 5 -18 6 -33 0 -18 6 -28 18
-30 16 -3 17 -1 7 19 -11 20 -10 21 9 16 18 -4 19 -2 11 13 -14 26 -13 30 8
23 9 -4 4 6 -13 21 -28 27 -29 27 -3 13 l26 -16 -14 28 c-27 55 -39 55 -50 1z"/>
<path d="M1710 2020 c-9 -6 -10 -10 -3 -10 6 0 15 5 18 10 8 12 4 12 -15 0z"/>
<path d="M1967 2013 c-4 -3 -7 -20 -6 -37 l1 -31 8 35 c9 36 8 45 -3 33z"/>
<path d="M1710 1970 c-8 -19 -25 -40 -38 -46 -23 -11 -22 -11 10 -19 l33 -8
-30 -7 c-28 -7 -27 -8 13 -9 46 -1 53 -12 22 -34 l-21 -14 22 -6 c19 -5 21
-10 15 -41 -9 -45 -2 -46 21 -3 17 32 17 32 23 7 5 -20 8 -15 19 32 17 69 12
85 -31 96 -29 7 -34 13 -38 47 l-5 39 -15 -34z"/>
<path d="M2664 1856 c14 -56 27 -81 35 -67 6 9 12 3 20 -20 13 -39 14 -79 2
-79 -14 0 -23 34 -15 56 5 19 5 19 -7 0 -9 -15 -7 -29 11 -73 23 -56 24 -102
5 -273 l-5 -45 15 45 c8 24 19 87 24 140 5 52 14 108 20 123 17 44 13 108 -9
144 -10 18 -38 42 -61 53 l-42 22 7 -26z"/>
<path d="M1992 1830 c0 -14 2 -19 5 -12 2 6 2 18 0 25 -3 6 -5 1 -5 -13z"/>
<path d="M1835 1819 c-2 -3 -2 -15 1 -26 7 -25 54 -27 54 -3 1 10 5 7 13 -7
15 -27 32 -18 39 19 5 26 5 27 -49 25 -30 -1 -56 -5 -58 -8z"/>
<path d="M2070 1798 c0 -2 9 -32 21 -68 21 -69 19 -120 -7 -172 -17 -33 -18
-123 -3 -167 10 -29 12 -31 24 -14 11 17 21 98 31 281 5 71 3 87 -13 104 -16
18 -53 43 -53 36z"/>
<path d="M2680 1660 c20 -13 33 -13 25 0 -3 6 -14 10 -23 10 -15 0 -15 -2 -2
-10z"/>
<path d="M3635 1460 c-3 -16 -2 -37 4 -47 8 -14 10 -8 11 30 0 54 -5 60 -15
17z"/>
<path d="M2968 1404 c-5 -4 -8 -26 -7 -48 l1 -41 9 33 c11 37 9 68 -3 56z"/>
<path d="M2691 1309 c-7 -22 -10 -43 -7 -46 2 -3 10 14 16 37 15 55 7 63 -9 9z"/>
<path d="M3489 1258 c-22 -35 -45 -62 -51 -60 -17 5 -46 -28 -80 -87 -17 -31
-52 -81 -78 -111 -25 -30 -58 -76 -73 -102 -37 -64 -98 -114 -157 -128 -27 -6
-72 -27 -101 -45 -52 -33 -82 -37 -58 -9 6 7 15 12 19 9 4 -2 22 11 40 30 25
26 30 35 17 35 -9 0 -21 -9 -27 -21 -7 -11 -14 -18 -17 -15 -4 3 -12 1 -20 -5
-10 -9 -13 -8 -13 0 0 7 -4 9 -10 6 -9 -6 0 25 37 120 11 28 23 63 27 79 6 24
4 28 -10 22 -12 -5 -15 -2 -9 11 15 41 25 112 23 168 -1 33 1 80 6 105 l9 45
-27 -38 c-14 -21 -26 -46 -26 -55 0 -10 -5 -23 -10 -28 -6 -6 -15 -39 -21 -74
-5 -35 -14 -71 -20 -82 -10 -19 -39 -25 -39 -7 0 6 -9 8 -20 4 -11 -3 -29 -3
-40 0 -25 8 -27 62 -3 108 15 31 15 31 -2 17 -10 -8 -31 -34 -46 -58 l-27 -43
-22 31 c-22 30 -50 41 -50 18 0 -7 7 -22 16 -33 12 -16 16 -17 23 -6 14 22 23
-5 16 -48 -9 -56 -44 -159 -45 -136 -1 13 -8 6 -20 -22 -11 -24 -21 -43 -23
-43 -3 0 4 30 14 68 10 37 19 79 19 95 0 29 -17 37 -26 12 -4 -8 -10 -12 -15
-9 -5 3 -34 -8 -63 -25 -41 -23 -56 -27 -65 -18 -9 9 -11 8 -5 -7 6 -15 14
-17 45 -12 38 6 39 5 39 -24 0 -20 -7 -33 -22 -41 -18 -10 -20 -9 -15 5 5 12
-4 18 -35 27 -23 6 -54 9 -70 7 -47 -7 -34 21 42 94 39 38 68 68 64 68 -18 0
-78 -47 -121 -95 -36 -41 -52 -52 -63 -45 -12 8 -11 13 8 39 17 23 20 35 13
53 l-10 23 0 -23 c-1 -12 -8 -25 -16 -28 -8 -4 -15 -12 -15 -20 0 -8 -4 -14
-8 -14 -12 0 -68 62 -76 84 -10 28 -19 12 -12 -21 11 -48 61 -99 121 -124 37
-15 55 -28 55 -40 0 -21 -52 -30 -88 -15 -15 6 -26 6 -34 -2 -20 -20 -40 -15
-28 7 16 31 12 36 -12 14 -29 -26 -68 -39 -68 -22 0 16 -37 -18 -58 -53 -9
-16 -21 -28 -28 -28 -6 0 -16 -10 -22 -22 -9 -21 -11 -18 -11 20 -1 23 5 57
13 75 12 30 12 33 -5 33 -12 0 -19 -7 -19 -18 0 -39 -51 0 -74 56 -22 52 -30
41 -11 -14 16 -46 20 -90 7 -90 -4 0 -13 19 -19 43 -7 24 -21 54 -33 68 -21
24 -21 24 -10 1 11 -23 11 -23 -12 -8 -17 11 -31 13 -53 7 -17 -5 -22 -10 -12
-10 26 -1 31 -26 11 -60 -13 -22 -21 -27 -30 -20 -9 7 -17 3 -28 -13 -14 -19
-16 -20 -16 -4 0 15 -6 17 -39 11 -66 -11 -72 -4 -118 145 -3 9 -10 1 -20 -22
-19 -48 -39 -48 -93 -3 -23 19 -44 35 -47 35 -2 0 24 -40 58 -90 34 -49 59
-93 55 -97 -16 -16 -109 -31 -125 -21 -29 19 -112 123 -142 178 -37 67 -59 92
-76 86 -8 -3 -29 20 -54 60 -23 36 -44 63 -46 60 -3 -3 -2 -25 1 -49 6 -36 22
-62 90 -143 103 -123 227 -241 286 -273 41 -22 44 -23 27 -4 -21 24 -16 29 33
38 34 6 36 4 70 -49 29 -46 41 -56 75 -64 22 -6 47 -10 55 -10 8 -1 34 -4 57
-8 30 -5 62 0 115 16 94 29 124 44 176 94 51 48 77 65 70 45 -3 -8 -29 -34
-59 -58 -30 -25 -53 -48 -52 -52 2 -5 -19 -23 -45 -41 -26 -17 -41 -25 -34
-16 11 14 9 16 -12 14 -13 0 -22 -4 -20 -8 2 -3 -2 -9 -8 -11 -7 -3 -4 -6 7
-7 11 -1 29 -3 40 -5 57 -12 445 -26 545 -20 275 16 281 16 395 52 130 41 188
77 289 182 50 52 143 148 206 213 111 114 147 168 164 241 5 20 3 27 -4 22 -8
-5 -9 9 -4 44 4 28 4 51 0 51 -4 0 -25 -28 -47 -62z m-792 -280 c-3 -7 -5 -2
-5 12 0 14 2 19 5 13 2 -7 2 -19 0 -25z m-110 -60 c-3 -7 -5 -2 -5 12 0 14 2
19 5 13 2 -7 2 -19 0 -25z m-698 -105 c1 -7 -3 -13 -8 -13 -13 0 -21 27 -14
47 6 15 7 15 14 -3 4 -10 8 -25 8 -31z m-52 -65 c-2 -18 -4 -6 -4 27 0 33 2
48 4 33 2 -15 2 -42 0 -60z m878 68 c42 -18 45 -28 6 -20 -16 3 -31 1 -35 -4
-4 -6 3 -38 14 -71 21 -63 26 -101 12 -101 -4 0 -13 19 -19 43 -6 23 -27 58
-45 78 -18 19 -28 28 -22 20 6 -9 15 -23 19 -31 8 -13 7 -13 -8 -1 -17 14
-103 12 -139 -4 -13 -5 -18 -3 -18 7 0 21 28 43 73 59 21 7 43 19 49 26 14 17
70 16 113 -1z m-322 -13 c-7 -2 -19 -2 -25 0 -7 3 -2 5 12 5 14 0 19 -2 13 -5z
m337 -48 c20 -15 47 -25 67 -25 26 0 33 -4 33 -20 0 -13 -5 -18 -15 -14 -11 5
-15 -2 -15 -26 l0 -32 -31 26 c-23 20 -85 116 -75 116 1 0 17 -11 36 -25z
m-1253 -31 c-3 -3 -12 -4 -19 -1 -8 3 -5 6 6 6 11 1 17 -2 13 -5z m1099 -18
c9 -23 -28 -78 -49 -72 -10 2 -23 -4 -32 -17 l-15 -21 0 22 c0 64 78 135 96
88z m-256 -23 c8 -3 -14 -13 -50 -22 -71 -19 -88 -17 -68 6 23 28 68 34 118
16z m350 -23 c0 -11 -4 -20 -10 -20 -5 0 -10 9 -10 20 0 11 5 20 10 20 6 0 10
-9 10 -20z m-59 -90 l-10 -25 0 27 c-1 14 2 35 6 45 7 17 8 17 11 -2 1 -12 -2
-32 -7 -45z"/>
<path d="M2101 1234 c0 -11 3 -14 6 -6 3 7 2 16 -1 19 -3 4 -6 -2 -5 -13z"/>
<path d="M2661 1194 c0 -11 3 -14 6 -6 3 7 2 16 -1 19 -3 4 -6 -2 -5 -13z"/>
<path d="M1800 1142 c0 -4 28 -23 63 -42 59 -31 64 -32 91 -18 l29 15 -45 27
c-43 25 -138 38 -138 18z"/>
<path d="M2043 1068 c-2 -48 -17 -83 -33 -73 -4 2 -13 -8 -20 -23 l-14 -27 -5
35 c-4 23 -9 31 -14 22 -5 -7 -12 -10 -16 -7 -5 2 -6 -6 -4 -19 3 -13 15 -29
28 -36 13 -7 26 -19 29 -27 4 -10 -5 -8 -30 7 -38 24 -55 21 -33 -6 20 -24 53
-34 86 -25 25 7 29 14 40 72 12 61 9 144 -5 153 -4 2 -8 -18 -9 -46z"/>
<path d="M1770 1083 c29 -27 30 -30 19 -67 l-11 -38 -45 6 c-49 7 -72 27 -73
65 0 21 -2 22 -17 10 -11 -10 -14 -10 -9 -1 15 25 -33 12 -54 -15 -18 -24 -19
-28 -5 -35 8 -5 30 -8 47 -6 24 2 35 -2 43 -17 5 -11 18 -19 27 -17 9 2 23 -6
29 -16 13 -20 13 -20 62 -1 27 11 60 20 73 21 28 3 29 7 10 52 -15 36 -78 86
-108 86 -15 0 -12 -6 12 -27z"/>
<path d="M2585 1050 c3 -5 13 -10 21 -10 8 0 12 5 9 10 -3 6 -13 10 -21 10 -8
0 -12 -4 -9 -10z"/>
<path d="M2498 1010 c-3 -19 -1 -29 6 -27 14 4 21 57 8 57 -5 0 -12 -14 -14
-30z"/>
<path d="M3145 987 c-16 -12 -36 -27 -43 -34 -7 -7 -17 -13 -22 -13 -14 0 -68
-49 -92 -83 l-23 -32 46 33 c31 22 61 34 97 39 68 8 79 18 72 70 l-5 42 -30
-22z"/>
<path d="M2125 961 c-23 -10 -63 -51 -49 -51 5 0 25 14 44 30 37 31 38 34 5
21z"/>
<path d="M1686 908 c4 -13 13 -32 21 -43 13 -19 14 -18 8 10 -10 48 -14 55
-25 55 -7 0 -9 -9 -4 -22z"/>
<path d="M1622 890 c21 -18 35 -37 31 -43 -3 -6 -1 -7 6 -3 6 4 18 2 26 -4 23
-19 18 0 -11 37 -14 19 -33 33 -42 31 -10 -1 -24 1 -32 6 -8 4 2 -7 22 -24z"/>
<path d="M2950 900 c-9 -6 -10 -10 -3 -10 6 0 15 5 18 10 8 12 4 12 -15 0z"/>
<path d="M2896 785 c-9 -26 -7 -32 5 -12 6 10 9 21 6 23 -2 3 -7 -2 -11 -11z"/>
<path d="M1970 590 c-14 -11 -21 -20 -17 -20 5 0 20 9 34 20 14 11 22 20 17
20 -5 0 -20 -9 -34 -20z"/>
<path d="M2845 514 c-285 -101 -646 -130 -970 -78 -22 3 -38 4 -35 1 10 -10
195 -36 306 -43 250 -15 606 46 763 131 38 21 15 17 -64 -11z"/>
</g>
</svg>
