<?xml version="1.0" standalone="no"?>
<!DOCTYPE svg PUBLIC "-//W3C//DTD SVG 20010904//EN"
 "http://www.w3.org/TR/2001/REC-SVG-20010904/DTD/svg10.dtd">
<svg version="1.0" xmlns="http://www.w3.org/2000/svg"
 width="512.000000pt" height="512.000000pt" viewBox="0 0 512.000000 512.000000"
 preserveAspectRatio="xMidYMid meet">

<g transform="translate(0.000000,512.000000) scale(0.100000,-0.100000)"
fill="#FFFFFF" stroke="none">
<path d="M1871 4799 c-128 -25 -257 -125 -311 -241 -37 -79 -50 -146 -50 -259
l0 -89 -696 0 -696 0 -40 -22 c-24 -14 -48 -38 -59 -60 -18 -36 -19 -87 -19
-1716 0 -1100 4 -1698 10 -1733 34 -180 179 -325 359 -359 74 -14 4308 -14
4382 0 180 34 325 179 359 359 6 35 10 632 10 1730 l0 1677 -22 44 c-43 84 1
80 -790 80 l-698 0 0 89 c0 48 -5 112 -10 142 -34 180 -179 325 -359 359 -66
12 -1306 12 -1370 -1z m1359 -309 c60 -31 80 -78 80 -190 l0 -90 -750 0 -750
0 0 90 c0 110 20 159 78 189 36 19 60 20 670 21 615 0 634 -1 672 -20z m1528
-592 c-3 -7 -110 -327 -237 -711 -164 -490 -240 -706 -258 -727 -13 -16 -41
-34 -61 -40 -23 -6 -204 -10 -464 -10 l-428 0 0 90 c0 112 -20 159 -80 190
-38 19 -58 20 -670 20 -612 0 -632 -1 -670 -20 -60 -31 -80 -78 -80 -190 l0
-90 -427 0 c-261 0 -442 4 -465 10 -20 6 -48 24 -61 40 -18 21 -94 237 -258
727 -127 384 -234 704 -237 711 -3 9 441 12 2198 12 1757 0 2201 -3 2198 -12z
m-4188 -1548 c32 -63 121 -152 184 -184 107 -54 124 -56 609 -56 l447 0 0 -90
c0 -112 20 -159 80 -190 38 -19 58 -20 670 -20 612 0 632 1 670 20 60 31 80
78 80 190 l0 90 448 0 c484 0 501 2 608 56 63 32 152 121 184 184 13 25 78
209 146 410 l122 365 1 -1198 c1 -1182 1 -1198 -19 -1237 -13 -26 -34 -47 -60
-60 -39 -20 -54 -20 -2180 -20 -2126 0 -2141 0 -2180 20 -26 13 -47 34 -60 60
-20 39 -20 55 -19 1237 l1 1198 122 -365 c68 -201 133 -385 146 -410z m2440
-90 l0 -150 -450 0 -450 0 0 150 0 150 450 0 450 0 0 -150z"/>
</g>
</svg>
